<mxfile host="65bd71144e">
    <diagram id="qwQNvDC_hDgn5mcZP4Vy" name="Page-1">
        <mxGraphModel dx="554" dy="530" grid="1" gridSize="10" guides="1" tooltips="1" connect="1" arrows="1" fold="1" page="1" pageScale="1" pageWidth="850" pageHeight="1100" math="0" shadow="0">
            <root>
                <mxCell id="0"/>
                <mxCell id="1" parent="0"/>
                <mxCell id="2" value="Users&lt;br&gt;login:string&lt;br&gt;password_digest:string" style="rounded=0;whiteSpace=wrap;html=1;" vertex="1" parent="1">
                    <mxGeometry x="31" y="390" width="200" height="110" as="geometry"/>
                </mxCell>
                <mxCell id="3" value="Blogs&lt;br&gt;User_id:integer&lt;br&gt;content:text&lt;br&gt;title:string&lt;br&gt;likes:integer&lt;br&gt;dislikes:integer" style="rounded=0;whiteSpace=wrap;html=1;" vertex="1" parent="1">
                    <mxGeometry x="310" y="420" width="180" height="110" as="geometry"/>
                </mxCell>
                <mxCell id="4" value="" style="endArrow=classic;html=1;shape=flexArrow;" edge="1" parent="1">
                    <mxGeometry width="50" height="50" relative="1" as="geometry">
                        <mxPoint x="230" y="450" as="sourcePoint"/>
                        <mxPoint x="300" y="460" as="targetPoint"/>
                    </mxGeometry>
                </mxCell>
                <mxCell id="5" value="Comments&amp;nbsp;&lt;br&gt;user_id:integer&lt;br&gt;blog_id:integer&lt;br&gt;content:string" style="rounded=0;whiteSpace=wrap;html=1;" vertex="1" parent="1">
                    <mxGeometry x="120" y="580" width="180" height="90" as="geometry"/>
                </mxCell>
                <mxCell id="6" value="" style="shape=flexArrow;endArrow=classic;html=1;" edge="1" parent="1">
                    <mxGeometry width="50" height="50" relative="1" as="geometry">
                        <mxPoint x="100" y="510" as="sourcePoint"/>
                        <mxPoint x="150" y="570" as="targetPoint"/>
                    </mxGeometry>
                </mxCell>
                <mxCell id="7" value="" style="shape=flexArrow;endArrow=classic;html=1;" edge="1" parent="1">
                    <mxGeometry width="50" height="50" relative="1" as="geometry">
                        <mxPoint x="300" y="530" as="sourcePoint"/>
                        <mxPoint x="260" y="570" as="targetPoint"/>
                    </mxGeometry>
                </mxCell>
            </root>
        </mxGraphModel>
    </diagram>
</mxfile>